<svg xmlns="http://www.w3.org/2000/svg" enable-background="new 0 0 1000 1000" viewBox="0 0 1000 1000"><linearGradient id="a" x1="309.749" x2="703.661" y1="661.128" y2="661.128" gradientTransform="matrix(1.0663 -.00172 .0115 1.2352 -47.802 -293.269)" gradientUnits="userSpaceOnUse"><stop offset="0"/><stop offset="1" stop-color="#111"/></linearGradient><path fill="url(#a)" d="M686.88,777.96l-368.74,0.59c-14.11,0.02-25.77-13.33-25.92-29.67L288,296.74
	c-0.15-16.34,11.26-29.73,25.37-29.75l368.74-0.59c14.11-0.02,25.77,13.33,25.92,29.67l4.22,452.15
	C712.4,764.55,700.98,777.94,686.88,777.96z"/><linearGradient id="b" x1="491.476" x2="506.693" y1="597.334" y2="1114.733" gradientUnits="userSpaceOnUse"><stop offset=".032" stop-color="#faaf87"/><stop offset=".82" stop-color="#ffd9a9"/></linearGradient><path fill="url(#b)" d="M809.03,741.58c-29.77-29.43-171.49-10.76-219-64.4c-9.55-10.8-18.88-48.14-26.26-86.06
	c-0.22-1.13-1.31-1.96-2.58-1.96h-58.5h-5.4h-58.49c-1.27,0-2.35,0.83-2.58,1.96c-7.39,37.93-16.72,75.27-26.27,86.06
	c-47.5,53.64-189.23,34.97-219,64.4c-12.25,12.15-15.52,39.76-15.65,64.97c0,0,1.17,245.59,2.62,245.59c0,0,646.76-1.06,646.76-2.38
	V806.55C824.56,781.34,821.28,753.73,809.03,741.58z"/><linearGradient id="c" x1="459.726" x2="547.912" y1="217.22" y2="579.988" gradientUnits="userSpaceOnUse"><stop offset=".032" stop-color="#faaf87"/><stop offset="1" stop-color="#ffd9a9"/></linearGradient><path fill="url(#c)" d="M339.18,306.48c22.51-98.25,93.23-137.58,159.48-138.67v-0.07c0.54,0.01,1.11,0.06,1.66,0.06
			c0.58,0,1.09-0.05,1.66-0.05v0.06c66.23,1.28,136.83,40.78,159.08,139.09c32.06,141.68-23.59,230.37-86.86,283.99
			c-25.56,21.71-49.81,31.4-72.83,31.39v0.08c-0.58,0.02-1.1-0.07-1.65-0.07c-0.55,0-1.13,0.09-1.66,0.07v-0.08
			c-23.06-0.06-47.27-9.81-72.76-31.58C362.13,536.91,306.76,448.07,339.18,306.48z"/><linearGradient id="d" x1="498.168" x2="499.69" y1="520.644" y2="546.241" gradientUnits="userSpaceOnUse"><stop offset="0" stop-color="#ff0036"/><stop offset="1" stop-color="#ff2651"/></linearGradient><path fill="url(#d)" d="M509.25,514.01c-4.05,0-8.74,5.24-10.59,5.24c-1.84,0-6.54-5.24-10.59-5.24
			c-9.07,0-39.26,14.97-39.26,14.97s6.96,5.07,12.83,7.37c14.21,5.55,25.24,10.57,37.02,10.57c11.78,0,22.81-5.02,37.02-10.57
			c5.87-2.29,12.82-7.37,12.82-7.37S518.32,514.01,509.25,514.01z"/><linearGradient id="e" x1="291.573" x2="705.896" y1="246.814" y2="246.814" gradientUnits="userSpaceOnUse"><stop offset="0"/><stop offset="1" stop-color="#111"/></linearGradient><path fill="url(#e)" d="M312.89,414.28c3.46,6.64,11.3,8.58,17,4.22l82.57-63.17
	c37.8-30.02,137.34-84.13,168.23-107.16c5.24-3.91,12.37-2.6,16.11,3.05c36.64,55.39,57.54,111.36,68.17,150.69
	c3.15,11.67,17.72,12.63,22.18,1.49c11.34-28.32,25.27-83.46,15.36-153.14C688.25,149.94,632,81.49,540.3,74.78
	c-16.62-1.21-214.58-29.74-244.37,175.48C283.23,337.71,301.2,391.84,312.89,414.28z"/><linearGradient id="f" x1="283.51" x2="708.22" y1="280.055" y2="280.055" gradientUnits="userSpaceOnUse"><stop offset=".038" stop-color="#a000ff"/><stop offset="1" stop-color="#3e1668"/></linearGradient><path fill="none" stroke="url(#f)" stroke-linecap="round" stroke-linejoin="round" stroke-width="15" d="M700.72,282.96
			c-0.97-1.96-1.94-3.89-2.93-5.8"/><linearGradient id="g" x1="283.51" x2="708.22" y1="215.214" y2="215.214" gradientUnits="userSpaceOnUse"><stop offset=".038" stop-color="#a000ff"/><stop offset="1" stop-color="#3e1668"/></linearGradient><path fill="none" stroke="url(#g)" stroke-dasharray="13.084 13.084" stroke-linecap="round" stroke-linejoin="round" stroke-width="15" d="
			M691.55,265.65c-118.07-207.87-359.15-90.85-397,14.2"/><linearGradient id="h" x1="283.51" x2="708.22" y1="289.224" y2="289.224" gradientUnits="userSpaceOnUse"><stop offset=".038" stop-color="#a000ff"/><stop offset="1" stop-color="#3e1668"/></linearGradient><path fill="none" stroke="url(#h)" stroke-linecap="round" stroke-linejoin="round" stroke-width="15" d="M292.55,286.07
			c-0.6,2.11-1.11,4.22-1.54,6.31"/><linearGradient id="i" x1="509.986" x2="491.37" y1="696.842" y2="1125.009" gradientUnits="userSpaceOnUse"><stop offset=".038" stop-color="#a000ff"/><stop offset="1" stop-color="#3e1668"/></linearGradient><path fill="url(#i)" d="M175.31,774.38v310.82c0,1.43,1.17,2.59,2.6,2.57l644.23-6.51c1.41-0.01,2.55-1.16,2.55-2.57
	V768.08c0-2.07-2.32-3.3-4.03-2.12c-21.12,14.67-125.58,79.64-319.87,79.64c-194.58,0-300.42-60.05-321.53-73.39
	C177.55,771.12,175.31,772.35,175.31,774.38z"/><linearGradient id="j" x1="329.901" x2="310.417" y1="680.172" y2="1128.29" gradientUnits="userSpaceOnUse"><stop offset=".038" stop-color="#a000ff"/><stop offset="1" stop-color="#3e1668"/></linearGradient><polygon fill="url(#j)" points="341.02 836.7 310.41 836.7 310.41 716.19 337.84 711.36"/><linearGradient id="k" x1="714.414" x2="695.998" y1="705.203" y2="1128.774" gradientUnits="userSpaceOnUse"><stop offset=".038" stop-color="#a000ff"/><stop offset="1" stop-color="#3e1668"/></linearGradient><polygon fill="url(#k)" points="726.88 836.7 696.26 836.7 695.71 717.07 728.06 721.09"/></svg>