<svg xmlns="http://www.w3.org/2000/svg" enable-background="new 0 0 1000 1000" viewBox="0 0 1000 1000"><linearGradient id="a" x1="101.056" x2="910.2" y1="819.185" y2="819.185" gradientUnits="userSpaceOnUse"><stop offset="0" stop-color="#fec797"/><stop offset="1" stop-color="#ffd9a9"/></linearGradient><path fill="url(#a)" d="M909.1,1084.77c1.1-32.04,2.21-97.6-1.12-202.93c-5.03-158.07-35.54-203.68-78.94-244.91
	c-40.47-38.47-189.27-64.09-222.59-83.33c0,0-4.91,71.66-102.05,69.43c-97.15,2.23-106.05-69.43-106.05-69.43
	c-33.32,19.24-178.11,44.86-218.58,83.33c-43.39,41.23-71.47,86.84-76.49,244.91c-3.33,105.33-2.22,170.89-1.11,202.93H909.1z"/><linearGradient id="b" x1="499.826" x2="499.826" y1="684.4" y2="430.96" gradientUnits="userSpaceOnUse"><stop offset="0" stop-color="#fca768"/><stop offset="1" stop-color="#ffc593"/></linearGradient><rect width="213.26" height="214.5" x="393.2" y="496.48" fill="url(#b)"/><linearGradient id="c" x1="494.967" x2="490.648" y1="139.985" y2="505.025" gradientUnits="userSpaceOnUse"><stop offset="0" stop-color="#fca768"/><stop offset="1" stop-color="#ffc593"/></linearGradient><path fill="url(#c)" d="M657.76,197.1C653.18,95.07,532.12,80.8,501.07,78.84c-4.58-0.29-7.22-0.33-7.22-0.33h-0.16
	c0,0-158.65,1.5-163.88,118.59c-2.34,52.08-0.07,103.53,4.06,146.81c3,32.49,7.08,60.32,10.97,80.23
	c2.5,12.97,4.94,22.58,6.95,27.93c3.39,9.16,10.15,20.37,18.62,31.87c17.37,23.72,41.92,48.69,59.32,59.05
	c14.04,8.34,47.62,14.7,63.97,13.85h0.16c2.14,0.1,4.58,0.1,7.22-0.03c17.56-0.82,44.55-6.55,56.75-13.82
	c17.37-10.36,41.91-35.33,59.32-59.05c8.47-11.5,15.19-22.71,18.62-31.87c2.01-5.34,4.45-14.96,6.95-27.93
	c3.86-19.91,7.94-47.74,11-80.23C657.8,300.67,660.11,249.18,657.76,197.1z"/><linearGradient id="d" x1="520.152" x2="494.231" y1="552.258" y2="1217.538" gradientUnits="userSpaceOnUse"><stop offset="0" stop-color="#0cff00"/><stop offset=".871" stop-color="#00bc5d"/></linearGradient><path fill="url(#d)" d="M909.1,1084.77c1.1-32.04,2.21-97.6-1.12-202.93c-5.03-158.07-35.54-203.68-78.94-244.91
	c-40.47-38.47-189.27-64.09-222.59-83.33L493.9,703.12L393.48,556.2c-34.27,16.96-178.87,42.26-219.33,80.73
	c-43.39,41.23-71.47,86.84-76.49,244.91c-3.33,105.33-2.22,170.89-1.11,202.93H909.1z"/><linearGradient id="e" x1="254.701" x2="729" y1="265.409" y2="265.409" gradientUnits="userSpaceOnUse"><stop offset="0"/><stop offset="1" stop-color="#111"/></linearGradient><path fill="url(#e)" d="M709.79,256.46c4.54-5.77,7.06-9.89,7.12-17.05c0.07-8.94-11.44-15.24-8.62-24.7
	c2.78-9.36,16.83-13.39,15.65-25.01c-1.23-12.08-20.59-20.02-30.79-22.02c-13.29-2.59-34.05,1.65-17.26-18.69
	c17.58-21.3-5.83-17.25-19.11-17.58c-3.74-0.09-7.67-1.87-9.26-5.25c-2.91-6.22,2.25-13.55,1.09-20.14
	c-1.04-5.95-5.37-11.73-9.38-16.01c-8.83-9.41-21.89-15.29-34.38-17.82c-9.45-1.91-19.5-2.05-28.75-0.73
	c-3.8,0.54-14.39,6.48-17.78,4.38c-3.48-2.16-1.56-10.47-3.83-14.38c-2.11-3.63-5.9-6-9.8-7.57c-9.12-3.69-17.48,1.87-26.38,0.08
	c-6.56-1.32-13.73-11.21-20.63-7.48c-1.66,0.9-2.96,2.49-4.78,2.95c-4.65,1.16-8.53-5.64-13.18-4.47c-4.43,1.12-5.14,8.5-9.67,9.09
	c-1.43,0.19-2.82-0.42-4.17-0.93c-9.53-3.6-22.82-3.02-31.21,3.33c-5.44,4.12-5.84,18.3-9.67,19.52c-4.57,1.46-12.72-3.83-17.39-4.5
	c-9.23-1.32-19.27-1.18-28.73,0.73c-17.14,3.46-39.25,15.05-43.8,34.31c-1.51,6.39,4.01,14.28,0.79,20.36
	c-3.88,7.33-11.87,3.68-17.74,2.82c-5.41-0.78-15.69-1.9-17.64,3.96c-1.71,5.13,4.69,11.43,7.4,15.53
	c3.38,5.11,9.4,11.07,5.11,16.07c-3.46,4.03-17.33,1.43-22.46,2.44c-10.18,1.99-29.56,9.94-30.78,22.02
	c-1.18,11.62,12.9,15.66,15.68,25.01c2.82,9.46-8.68,15.76-8.63,24.7c0.04,7.16,2.55,11.28,7.09,17.05
	c-13.49,7.57-25.3,17.32-15.67,35.86c5.95,11.45,24.31,17.84,26.89,29.93c3.27,15.3-14.34,34.51,4.98,47.31
	c7.25,4.8,27.71-2.78,23.56,13.63c-0.92,3.65-3.07,6.88-4.25,10.46c-2.18,6.62-0.72,14.31,3.75,19.66
	c6.75,8.1,19.2,10.54,24.3,19.76c-2.26,0.44-4.38,1.6-5.97,3.27C353.31,446.42,356.49,467.6,369,486
	c-4.09-6.02,2.72-45.45,0.34-54.78c-0.03-0.19-0.09-0.38-0.12-0.56c-8.44-10.55-9.88-54.21-9.88-54.21
	c-2.68-16.68-6.3-34.38-5.19-51.23c0.52-7.81,1.91-15.42,2.56-23.1c2.52-29.83-1.93-67.56,22.71-90.39
	C397.08,195.36,446.15,249.09,495,243c49.85-6.22,95.07-50.39,114.64-24.9c7.55,9.83,10.52,22.36,12.72,34.55
	c7.36,40.69,8.31,82.53,2.82,123.52c4.56,3.2-2.33,44-10.74,54.52c-0.03,0.19-0.09,0.35-0.12,0.52
	c-2.35,9.33,10.74,39.76,6.67,45.78c9.88-2.84,27.46-37.66,31.39-41.11c-2.01-1.01-3.27-2.44-6.16-2.41
	c2.97-8.15,14.14-10.94,20.48-16.27c5.65-4.75,8.48-12.12,8.89-18.94c0.47-7.75-12.5-17.63-2.28-25.14
	c6.22-4.57,13.97,0.59,20.24-3.57c19.34-12.83,1.74-32.03,4.99-47.32c2.57-12.08,20.95-18.45,26.92-29.93
	C735.13,273.77,723.3,264.02,709.79,256.46z"/><linearGradient id="f" x1="460.435" x2="535.315" y1="775.814" y2="526.694" gradientUnits="userSpaceOnUse"><stop offset="0" stop-color="#f76415"/><stop offset="1" stop-color="#fd9714"/></linearGradient><path fill="url(#f)" d="M682,617.84c-0.91-8.24-4.41-14.42-9.56-20.97c-1.54-1.96-20.48-13.76-20.48-11.1
					c-0.57-12.25-0.28-19.4-5.66-30.64c-9.11-18.94-29.01-37.42-51.94-29.33l-0.66,16.88c0.53,0.16,1,0.34,1.39,0.57
					c3.69,0.91,5.98,2.81,7.32,5.27l0.14-0.09c9.85,19.69-1.57,41.95-5.01,55.79c-3.4,13.72-8.61,27.45-14.13,40.15
					c-0.37,0.92-0.77,1.83-1.17,2.71c-3.43,7.73-9.64,13.74-14.3,20.77c-11.37,17.15-25.98,31.62-43.84,41.95
					c-13.85,8.01-35.88,11.65-51.61,9.7c-54.54-6.66-95.13-56.56-108.12-107.3c-3.18-12.47-8.07-25.21-6.95-38.31h-0.03
					c-0.32,3.58-0.41,7.38-0.63,11.88c0-2.66-18.94,9.15-20.45,11.1c-5.18,6.55-8.64,12.73-9.59,20.97
					c-1.43,13.05-0.09,24.32,2.92,35.16c3.32,12.16,8.66,23.75,14.36,36.68c10.61,24.06,15.85,44.63,34.33,64.42
					c12.39,13.25,21.48,23.95,36.33,28.42c29.9-0.21,59.8-0.43,89.67-0.63h0.05c29.9,0.2,59.8,0.42,89.7,0.63
					c14.85-4.46,23.95-15.16,36.31-28.42c18.49-19.79,23.74-40.36,34.33-64.42c5.69-12.94,11.04-24.53,14.39-36.68
					C682.09,642.16,683.46,630.88,682,617.84z"/><linearGradient id="g" x1="465.777" x2="511.137" y1="603.003" y2="582.483" gradientUnits="userSpaceOnUse"><stop offset="0" stop-color="#f76415"/><stop offset="1" stop-color="#fd9714"/></linearGradient><path fill="url(#g)" d="M602.55,548.42l-0.14,0.09c3.72,6.81-0.06,17.97-2.06,24.51c-4.55,15.09-13.39,21.21-24.87,30.79
					c-11.41,9.56-20.25,13.05-34.53,17.31c-10.5,3.15-25.37,6.41-36.57,6.41h-0.05c-11.19,0-26.07-3.26-36.57-6.41
					c-14.28-4.26-23.12-7.75-34.53-17.31c-11.47-9.58-20.32-15.7-24.86-30.79c-2.78-9.12-7.69-26.23,5.35-30.04l0.09,0.17
					c0.35-0.2,0.76-0.35,1.2-0.48c0.17-3.39,0.36-6.78,0.38-10.18c-22.67-6.76-27.6,20.24-25.22,37.64
					c4.2,30.82,23.66,51.44,46.78,70.67c21.17,17.62,49.38,25.92,76.39,25.92c17.62,0,36.42-1.69,52.24-10.02
					c5.03-2.66,15.28-6.78,17.65-12.44l0.17,0.09c5.52-12.7,10.73-26.43,14.13-40.15C600.98,590.37,612.4,568.11,602.55,548.42z"/><linearGradient id="h" x1="516.637" x2="468.037" y1="555.721" y2="593.521" gradientUnits="userSpaceOnUse"><stop offset="0" stop-color="#f76415"/><stop offset="1" stop-color="#fd9714"/></linearGradient><path fill="url(#h)" d="M602.41,548.51c-1.34-2.46-3.63-4.35-7.32-5.27c2.74,1.63,1.94,4.92-0.04,8.21
					c-2.23,3.75-5.95,7.53-7.58,8.87c-6.89,5.75-15.17,12.19-23.04,16.83c-8.04,4.69-18.14,6.63-27.18,8.78
					c-6.64,1.57-11.3,3.49-32.87,2.97h-0.05c-21.58,0.52-26.24-1.4-32.85-2.97c-9.04-2.15-19.17-4.09-27.17-8.78
					c-7.9-4.64-16.14-11.08-23.04-16.83c-3.61-2.99-6.3-5.95-7.93-8.58c-2.4-3.89-2.43-7.06,0.46-8.59l-0.09-0.17
					c-13.05,3.8-8.13,20.92-5.35,30.04c4.55,15.09,13.39,21.21,24.86,30.79c11.41,9.56,20.26,13.05,34.53,17.31
					c10.5,3.15,25.38,6.41,36.57,6.41h0.05c11.19,0,26.07-3.26,36.57-6.41c14.28-4.26,23.12-7.75,34.53-17.31
					c11.47-9.58,20.32-15.7,24.87-30.79C602.35,566.48,606.13,555.32,602.41,548.51z"/><path fill="#6b4732" d="M593.7,553.73c4.11-6.12,4.13-8.85,1.39-10.48c-0.39-0.23-0.86-0.42-1.39-0.57V553.73z"/><linearGradient id="i" x1="410.797" x2="440.317" y1="687.557" y2="645.797" gradientUnits="userSpaceOnUse"><stop offset="0" stop-color="#f76415"/><stop offset="1" stop-color="#fd9714"/></linearGradient><path fill="url(#i)" d="M583.24,644.27c-2.38,5.66-12.62,9.78-17.65,12.44c-15.82,8.33-34.62,10.02-52.24,10.02
					c-27.01,0-55.22-8.3-76.39-25.92c-23.12-19.23-42.58-39.85-46.78-70.67c-2.38-17.4,2.54-44.4,25.22-37.64
					c0.02-1.99-0.02-3.97-0.16-5.97l-0.25-0.53c-25.08-13.08-42.78,8.78-52.53,29.12c-3.44,7.12-4.55,12.58-5.06,18.76h0.03
					c-1.12,13.1,3.77,25.83,6.95,38.31c12.99,50.73,53.58,100.63,108.12,107.3c15.73,1.94,37.76-1.69,51.61-9.7
					c17.85-10.33,32.47-24.8,43.84-41.95c4.66-7.03,10.87-13.04,14.3-20.77c0.4-0.88,0.81-1.79,1.17-2.71L583.24,644.27z"/><g><path fill="#6b4732" d="M413.81,543.15c-2.89,1.52-3.31,5.22,1.2,10.92c0,0-0.08-9.65,0-11.4
					C414.57,542.81,414.15,542.96,413.81,543.15z"/></g></svg>