<svg width="522" height="522" viewBox="0 0 522 522" fill="none" xmlns="http://www.w3.org/2000/svg">
<path d="M174.546 75.0845C174.546 75.0845 95.4425 115.383 55.9897 177.48C16.537 239.577 19.6585 319.464 67.599 378.763C115.539 438.062 207.171 430.274 283.895 467.837C360.618 505.4 445.266 497.664 481.545 418.08C517.824 338.496 463.118 308.753 453.722 216.651C444.326 124.549 361.297 -10.3147 174.546 75.0845Z" fill="#407BFF"/>
<path opacity="0.7" d="M174.546 75.0845C174.546 75.0845 95.4425 115.383 55.9897 177.48C16.537 239.577 19.6585 319.464 67.599 378.763C115.539 438.062 207.171 430.274 283.895 467.837C360.618 505.4 445.266 497.664 481.545 418.08C517.824 338.496 463.118 308.753 453.722 216.651C444.326 124.549 361.297 -10.3147 174.546 75.0845Z" fill="white"/>
<path d="M128.934 395.133C132.066 394.089 137.62 388.984 137.62 388.973C137.62 388.963 133.152 386.374 132.849 386.249C129.331 384.766 121.657 383.973 118.87 387.22C118.429 387.772 118.108 388.41 117.929 389.094C117.749 389.777 117.714 390.491 117.826 391.189C117.938 391.887 118.195 392.554 118.579 393.146C118.964 393.739 119.468 394.245 120.06 394.632C122.524 396.386 126.22 396.01 128.934 395.133Z" fill="#9C9C9C"/>
<path d="M186.782 345.919C186.855 345.919 184.485 341.294 184.297 341.012C182.209 337.88 176.217 332.942 172.103 334.111C171.425 334.325 170.8 334.678 170.267 335.149C169.734 335.62 169.306 336.197 169.011 336.844C168.715 337.49 168.559 338.192 168.553 338.903C168.546 339.614 168.689 340.318 168.971 340.97C170.088 343.768 173.377 345.501 176.133 346.263C179.37 347.161 186.772 345.929 186.782 345.919Z" fill="#9C9C9C"/>
<path d="M145.314 409.655C148.008 407.891 151.725 401.992 152.017 401.522C155.386 403.655 158.895 405.559 162.519 407.223C164.607 408.204 166.779 409.133 168.951 410.031C167.907 409.76 166.956 409.54 166.863 409.519C163.073 409.018 155.462 410.282 153.635 414.144C153.349 414.797 153.203 415.503 153.208 416.215C153.213 416.928 153.369 417.631 153.664 418.28C153.96 418.928 154.389 419.507 154.924 419.978C155.459 420.449 156.087 420.802 156.767 421.014C159.607 422.058 163.031 420.69 165.464 419.124C167.896 417.558 171.153 412.558 171.999 411.232L174.505 412.276C178.524 413.873 182.533 415.408 186.427 417.12C187.795 417.704 189.121 418.341 190.457 418.957C189.517 418.728 188.734 418.54 188.609 418.529C184.819 418.028 177.219 419.291 175.382 423.154C175.095 423.806 174.95 424.511 174.955 425.223C174.96 425.935 175.116 426.637 175.411 427.285C175.707 427.933 176.136 428.511 176.671 428.981C177.206 429.451 177.833 429.803 178.514 430.013C181.364 431.057 184.83 429.69 187.21 428.124C189.59 426.558 192.576 422.047 193.599 420.481C194.936 421.16 196.282 421.839 197.556 422.569C198.412 423.081 199.279 423.509 200.114 424.073L202.599 425.67C204.133 426.714 205.731 427.842 207.213 428.927C208.257 429.679 209.218 430.41 210.199 431.141C208.842 430.546 206.159 429.418 205.919 429.355C202.254 428.311 194.539 428.385 192.148 431.924C191.765 432.523 191.513 433.196 191.408 433.899C191.303 434.602 191.347 435.32 191.538 436.005C191.729 436.689 192.063 437.326 192.517 437.873C192.971 438.42 193.536 438.866 194.174 439.18C196.825 440.61 200.438 439.816 203.058 438.626C205.908 437.321 210.366 432.279 210.867 431.642C212.485 432.863 214.051 434.064 215.502 435.223C219.741 438.574 223.27 441.591 225.942 443.951L228.03 442.051C225.233 439.691 221.495 436.622 216.995 433.218C215.356 431.976 213.582 430.671 211.775 429.355C212.739 427.426 213.59 425.443 214.323 423.415C217.528 423.739 223.562 422.079 224.345 421.86C225.024 423.77 225.661 425.639 226.235 427.403C227.884 432.446 229.148 436.799 230.077 440.255L232.415 438.167C231.444 434.941 230.192 431.005 228.636 426.568C227.957 424.626 227.195 422.569 226.381 420.461C227.101 420.053 232.906 416.671 234.733 414.124C236.393 411.806 237.865 408.392 236.967 405.5C236.778 404.816 236.447 404.179 235.996 403.631C235.545 403.083 234.984 402.636 234.349 402.318C233.715 402 233.021 401.819 232.312 401.786C231.603 401.754 230.895 401.87 230.233 402.128C226.297 403.809 224.731 411.357 225.076 415.157C225.076 415.387 225.598 417.798 225.932 419.333C225.598 418.467 225.285 417.631 224.888 416.754C224.199 415 223.458 413.278 222.675 411.42C222.257 410.532 221.85 409.645 221.422 408.747C220.994 407.849 220.493 406.941 220.023 406.022C218.906 403.934 217.664 401.846 216.359 399.758C217.893 399.153 223.291 396.918 225.295 394.872C227.3 392.826 229.262 389.652 228.803 386.698C228.722 385.992 228.494 385.312 228.133 384.7C227.771 384.089 227.285 383.561 226.706 383.15C226.127 382.739 225.467 382.455 224.771 382.316C224.075 382.178 223.357 382.187 222.664 382.344C218.488 383.388 215.826 390.634 215.596 394.444C215.596 394.674 215.722 397.43 215.826 398.944C215.033 397.712 214.25 396.48 213.414 395.258C210.992 391.74 208.424 388.253 205.887 384.766C205.104 383.722 204.342 382.626 203.58 381.551C204.123 381.342 210.596 378.826 212.84 376.54C214.834 374.452 216.808 371.32 216.359 368.355C216.277 367.649 216.047 366.968 215.684 366.357C215.322 365.745 214.835 365.217 214.255 364.807C213.675 364.396 213.015 364.112 212.318 363.973C211.621 363.834 210.902 363.844 210.209 364.001C206.033 365.045 203.371 372.29 203.142 376.101C203.142 376.393 203.329 380.35 203.434 381.321C201.743 378.951 200.083 376.581 198.537 374.18C196.431 370.951 194.541 367.585 192.879 364.106C193.13 364.012 199.895 361.412 202.191 359.063C204.186 356.975 206.159 353.843 205.71 350.888C205.629 350.183 205.401 349.502 205.039 348.891C204.678 348.28 204.192 347.752 203.613 347.341C203.033 346.93 202.374 346.646 201.678 346.507C200.981 346.368 200.264 346.378 199.571 346.535C195.395 347.579 192.733 354.824 192.503 358.635C192.503 358.885 192.639 361.903 192.743 363.333L192.514 363.396C190.925 359.852 189.66 356.173 188.734 352.402C188.202 350.314 187.805 348.32 187.461 346.368C188.766 346.013 194.769 344.332 197.045 342.443C199.32 340.553 201.555 337.713 201.44 334.696C201.434 333.986 201.279 333.284 200.985 332.638C200.691 331.991 200.265 331.413 199.733 330.942C199.202 330.471 198.577 330.116 197.9 329.901C197.223 329.686 196.508 329.616 195.802 329.695C191.574 330.29 188.097 337.181 187.45 340.95C187.45 341.148 187.283 343.267 187.21 344.812C187.074 343.925 186.907 343.017 186.792 342.161C186.344 338.956 186.124 336.001 185.947 333.381C185.863 331.888 185.822 330.53 185.79 329.267C186.886 328.223 191.292 324.047 192.441 321.406C193.589 318.765 194.268 315.142 192.775 312.511C192.444 311.881 191.984 311.329 191.426 310.888C190.867 310.448 190.222 310.131 189.533 309.956C188.844 309.782 188.125 309.755 187.424 309.877C186.724 309.998 186.057 310.266 185.467 310.663C181.98 313.148 182.074 320.863 183.232 324.507C183.337 324.82 185.456 329.56 185.519 329.507L185.581 329.445C185.581 330.656 185.581 331.961 185.665 333.391C185.78 336.022 185.926 338.997 186.312 342.223C186.689 345.699 187.268 349.15 188.045 352.559C188.897 356.386 190.092 360.128 191.616 363.74L191.678 363.865C190.864 362.915 188.494 360.337 188.285 360.159C185.404 357.654 178.357 354.511 174.713 356.724C174.115 357.108 173.605 357.613 173.215 358.207C172.825 358.802 172.565 359.471 172.452 360.173C172.339 360.874 172.375 361.592 172.557 362.278C172.74 362.965 173.066 363.605 173.513 364.158C175.329 366.569 178.952 367.373 181.813 367.384C185.028 367.384 191.376 364.513 191.887 364.252C193.522 367.891 195.399 371.417 197.504 374.807C198.715 376.78 199.999 378.742 201.315 380.684C200.584 379.891 199.926 379.181 199.822 379.087C196.94 376.592 189.893 373.439 186.25 375.652C185.651 376.036 185.141 376.541 184.751 377.135C184.361 377.729 184.101 378.399 183.988 379.1C183.875 379.802 183.911 380.519 184.094 381.206C184.276 381.893 184.602 382.533 185.049 383.085C186.855 385.507 190.488 386.301 193.349 386.311C196.209 386.322 201.701 383.973 203.142 383.336C203.653 384.077 204.186 384.829 204.676 385.57C207.14 389.109 209.614 392.648 211.984 396.177C212.809 397.43 213.571 398.683 214.333 399.936C213.686 399.226 213.133 398.641 213.039 398.557C210.157 396.052 203.11 392.909 199.467 395.123C198.869 395.507 198.36 396.013 197.971 396.608C197.582 397.202 197.323 397.872 197.211 398.573C197.099 399.275 197.135 399.992 197.319 400.678C197.503 401.365 197.829 402.004 198.276 402.556C200.083 404.968 203.716 405.772 206.566 405.782C209.416 405.792 214.396 403.694 216.108 402.921C216.86 404.226 217.611 405.531 218.269 406.836C218.708 407.734 219.188 408.569 219.564 409.499C219.939 410.428 220.368 411.315 220.754 412.203C221.453 413.956 222.174 415.752 222.842 417.475C223.291 418.665 223.698 419.813 224.105 420.962C223.312 419.709 221.683 417.297 221.526 417.109C219.251 414.626 216.375 412.771 213.174 411.722C212.937 411.432 212.671 411.167 212.381 410.929C211.847 410.461 211.22 410.112 210.542 409.902C209.863 409.693 209.148 409.628 208.443 409.713C207.739 409.797 207.059 410.029 206.45 410.394C205.84 410.758 205.314 411.246 204.906 411.827C202.546 415.397 205.407 422.559 207.798 425.545C207.933 425.722 209.677 427.455 210.794 428.531L208.435 426.996C206.9 425.952 205.303 424.908 203.653 423.77L201.137 422.225C200.302 421.693 199.362 421.233 198.464 420.732C196.376 419.605 194.194 418.561 191.981 417.6C192.921 416.253 196.157 411.42 196.731 408.601C197.306 405.782 197.17 402.086 195.155 399.842C194.697 399.299 194.13 398.858 193.491 398.548C192.852 398.238 192.155 398.067 191.445 398.044C190.735 398.021 190.028 398.148 189.371 398.417C188.713 398.685 188.119 399.089 187.628 399.602C184.757 402.733 186.5 410.282 188.4 413.591C188.526 413.8 190.154 416.013 191.083 417.214C189.747 416.629 188.411 416.034 187.043 415.481C183.076 413.883 179.015 412.349 174.974 410.877C173.732 410.417 172.5 409.937 171.268 409.467C171.613 408.997 175.622 403.329 176.227 400.176C176.77 397.378 176.676 393.661 174.651 391.417C174.193 390.873 173.626 390.433 172.987 390.123C172.348 389.813 171.651 389.642 170.941 389.619C170.231 389.596 169.524 389.723 168.866 389.992C168.209 390.26 167.615 390.664 167.124 391.176C164.253 394.308 165.996 401.857 167.907 405.166C168.042 405.417 170.402 408.601 171.039 409.342C168.324 408.298 165.631 407.254 163.01 406.095C159.473 404.563 156.041 402.799 152.737 400.813C152.894 400.593 157.112 394.695 157.728 391.469C158.26 388.671 158.166 384.954 156.151 382.71C155.693 382.166 155.126 381.726 154.487 381.416C153.848 381.106 153.151 380.935 152.441 380.912C151.731 380.889 151.024 381.016 150.367 381.285C149.709 381.553 149.115 381.957 148.624 382.469C145.753 385.601 147.496 393.15 149.396 396.459C149.522 396.678 151.317 399.111 152.205 400.249L152.038 400.426C148.763 398.343 145.681 395.971 142.83 393.338C141.232 391.907 139.792 390.456 138.424 389.005C139.322 387.961 143.373 383.294 144.26 380.444C145.147 377.594 145.408 374.013 143.654 371.57C143.256 370.982 142.739 370.483 142.136 370.107C141.533 369.731 140.858 369.486 140.154 369.388C139.451 369.289 138.734 369.34 138.051 369.536C137.368 369.732 136.734 370.069 136.19 370.526C132.995 373.366 133.903 381.029 135.428 384.526C135.511 384.714 136.576 386.551 137.37 387.877C136.764 387.22 136.127 386.552 135.553 385.904C133.465 383.482 131.596 381.133 130.009 379.035C129.111 377.834 128.328 376.738 127.598 375.704C127.963 374.243 129.341 368.344 128.819 365.473C128.297 362.602 126.877 359.209 124.184 357.873C123.562 357.531 122.875 357.324 122.168 357.265C121.461 357.206 120.75 357.297 120.08 357.531C119.41 357.766 118.797 358.138 118.281 358.625C117.765 359.112 117.357 359.703 117.085 360.358C115.55 364.346 119.883 370.724 122.847 373.126C123.108 373.334 127.493 376.112 127.514 376.038C127.516 376.007 127.516 375.976 127.514 375.944C128.193 376.988 128.934 378.032 129.759 379.202C131.304 381.29 133.079 383.733 135.177 386.207C137.412 388.9 139.8 391.462 142.329 393.88C145.153 396.58 148.21 399.026 151.464 401.188L151.589 401.261C150.388 400.917 146.985 400.071 146.713 400.04C142.924 399.539 135.323 400.802 133.486 404.665C133.199 405.317 133.054 406.023 133.059 406.736C133.064 407.448 133.22 408.152 133.515 408.8C133.811 409.449 134.24 410.027 134.775 410.498C135.309 410.97 135.937 411.323 136.618 411.534C139.468 412.558 142.934 411.232 145.314 409.655Z" fill="#9C9C9C"/>
<path d="M340.636 144.813C342.87 148.551 350.92 154.032 350.93 154.032C350.941 154.032 352.935 147.632 353.018 147.204C353.874 142.329 352.663 132.39 347.798 129.801C346.971 129.393 346.068 129.163 345.147 129.128C344.226 129.092 343.307 129.251 342.452 129.594C341.596 129.936 340.822 130.455 340.18 131.117C339.538 131.779 339.043 132.568 338.726 133.434C337.212 137.067 338.736 141.639 340.636 144.813Z" fill="#9C9C9C"/>
<path d="M419.573 203.841C419.573 203.935 424.793 199.602 425.075 199.289C428.489 195.687 432.957 186.761 430.295 181.865C429.83 181.068 429.203 180.379 428.454 179.841C427.705 179.303 426.852 178.928 425.949 178.742C425.045 178.556 424.113 178.562 423.213 178.76C422.312 178.958 421.463 179.344 420.722 179.892C417.496 182.115 416.253 186.772 416.076 190.467C415.877 194.81 419.573 203.831 419.573 203.841Z" fill="#9C9C9C"/>
<path d="M326.97 169.734C329.988 172.625 338.527 175.632 339.206 175.862C337.483 180.743 336.088 185.734 335.03 190.801C334.393 193.745 333.84 196.742 333.328 199.749C333.328 198.339 333.328 197.076 333.328 196.898C332.869 191.971 329.079 182.7 323.661 181.499C322.755 181.323 321.823 181.34 320.924 181.548C320.025 181.756 319.181 182.151 318.445 182.708C317.709 183.264 317.099 183.97 316.654 184.778C316.209 185.586 315.939 186.479 315.862 187.398C315.403 191.292 318.096 195.301 320.769 197.838C323.442 200.375 330.708 203.152 332.629 203.841C332.441 204.989 332.243 206.148 332.065 207.297C331.199 212.84 330.363 218.373 329.372 223.781C329.027 225.681 328.609 227.55 328.202 229.419C328.202 228.166 328.202 227.112 328.202 226.955C327.743 222.017 323.953 212.757 318.535 211.546C317.629 211.371 316.697 211.389 315.799 211.599C314.901 211.808 314.057 212.205 313.322 212.762C312.587 213.32 311.978 214.026 311.534 214.834C311.091 215.643 310.822 216.536 310.747 217.455C310.287 221.338 312.97 225.347 315.643 227.895C318.316 230.442 324.882 232.927 327.127 233.762C326.657 235.662 326.187 237.562 325.644 239.379C325.237 240.611 324.945 241.822 324.475 243.043L323.16 246.645C322.251 248.9 321.322 251.239 320.372 253.431C319.725 254.945 319.078 256.386 318.43 257.837C318.796 255.947 319.474 252.23 319.474 251.917C319.767 246.969 317.386 237.239 312.25 235.213C311.381 234.902 310.456 234.777 309.536 234.847C308.616 234.917 307.72 235.181 306.909 235.62C306.097 236.059 305.387 236.665 304.825 237.397C304.263 238.129 303.862 238.972 303.647 239.869C302.603 243.638 304.691 248.013 306.905 250.946C309.389 254.183 317.042 258.317 318.002 258.828C316.958 261.219 315.852 263.547 314.808 265.719C311.78 272.056 308.982 277.38 306.769 281.462L309.786 283.613C311.979 279.437 314.776 273.789 317.783 267.107C318.89 264.675 320.028 262.054 321.166 259.35C323.882 260.021 326.636 260.527 329.413 260.864C329.935 265.04 333.767 272.181 334.268 273.1C332.044 274.509 329.873 275.856 327.795 277.088C321.897 280.638 316.708 283.498 312.647 285.659L315.935 288.008C319.746 285.858 324.36 283.143 329.507 279.896C331.773 278.477 334.164 276.911 336.596 275.282C337.316 276.075 343.267 282.444 347.036 284.031C350.45 285.461 355.19 286.348 358.583 284.375C359.397 283.942 360.11 283.341 360.676 282.613C361.242 281.885 361.648 281.046 361.868 280.151C362.088 279.255 362.116 278.323 361.951 277.416C361.786 276.508 361.432 275.646 360.911 274.885C357.654 270.386 347.652 270.584 342.933 272.119C342.662 272.213 339.749 273.528 337.932 274.395C338.924 273.726 339.895 273.079 340.908 272.38C342.923 271.002 344.896 269.571 347.015 268.047L350.043 265.698C351.087 264.925 352.058 263.996 353.081 263.14C355.409 261.115 357.674 258.964 359.898 256.709C361.109 258.463 365.494 264.654 368.657 266.596C371.821 268.538 376.372 270.125 380.016 268.684C380.886 268.378 381.683 267.893 382.353 267.259C383.023 266.625 383.552 265.857 383.906 265.005C384.259 264.153 384.429 263.236 384.405 262.314C384.381 261.392 384.162 260.485 383.764 259.653C381.227 254.715 371.299 253.389 366.413 254.193C366.11 254.245 362.665 255.237 360.786 255.78C362.111 254.433 363.448 253.086 364.742 251.667C368.501 247.595 372.176 243.315 375.85 239.139C376.978 237.844 378.126 236.57 379.254 235.297C379.682 235.923 384.724 243.388 388.274 245.57C391.406 247.501 395.989 249.098 399.643 247.658C400.513 247.351 401.308 246.865 401.977 246.23C402.646 245.596 403.174 244.828 403.526 243.976C403.879 243.124 404.048 242.208 404.023 241.286C403.998 240.364 403.779 239.458 403.381 238.627C400.844 233.689 390.915 232.363 386.029 233.167C385.664 233.219 380.705 234.629 379.463 235.046C381.968 232.227 384.484 229.44 387.084 226.788C390.569 223.197 394.283 219.835 398.202 216.724C398.401 217.016 403.631 224.836 407.264 227.07C410.396 229.001 414.98 230.588 418.634 229.158C419.503 228.851 420.298 228.365 420.967 227.731C421.636 227.096 422.164 226.328 422.517 225.476C422.869 224.625 423.039 223.708 423.013 222.786C422.988 221.865 422.77 220.959 422.371 220.127C419.834 215.189 409.906 213.863 405.02 214.678C404.696 214.678 400.927 215.795 399.142 216.338L398.996 216.056C403.029 213.032 407.323 210.373 411.827 208.111C414.291 206.837 416.713 205.762 419.135 204.76C419.959 206.315 423.812 213.383 426.86 215.753C429.909 218.123 434.168 220.107 437.927 219.083C438.824 218.874 439.668 218.478 440.402 217.922C441.136 217.365 441.745 216.66 442.19 215.853C442.634 215.045 442.903 214.153 442.98 213.235C443.056 212.317 442.939 211.393 442.635 210.523C440.652 205.303 430.942 202.922 425.994 203.215C425.722 203.215 422.997 203.684 421.024 204.029C422.068 203.601 423.217 203.131 424.261 202.734C428.186 201.241 431.861 200.114 435.139 199.143C436.998 198.6 438.699 198.099 440.286 197.744C441.894 198.851 448.419 203.225 452.156 203.904C455.894 204.582 460.623 204.415 463.505 201.763C464.205 201.164 464.772 200.423 465.167 199.59C465.562 198.758 465.778 197.851 465.8 196.929C465.821 196.007 465.649 195.091 465.293 194.24C464.937 193.39 464.406 192.623 463.734 191.992C459.558 188.306 449.86 190.645 445.59 193.15C445.214 193.37 439.837 197.431 439.921 197.493L440.015 197.556C438.48 197.911 436.83 198.318 435.035 198.788C431.746 199.696 428.019 200.751 424.052 202.16C419.758 203.656 415.554 205.399 411.461 207.38C406.868 209.564 402.477 212.15 398.338 215.106L398.202 215.221C399.163 213.916 401.752 210.178 401.919 209.865C404.258 205.491 406.21 195.677 402.358 191.678C401.697 191.035 400.909 190.537 400.045 190.217C399.18 189.897 398.258 189.763 397.338 189.822C396.418 189.881 395.52 190.132 394.703 190.56C393.887 190.988 393.169 191.582 392.596 192.305C390.07 195.301 390.101 200.124 390.915 203.737C391.834 207.808 397.294 215.022 397.733 215.596C393.6 218.714 389.68 222.104 385.998 225.744C383.837 227.832 381.739 230.045 379.651 232.269C380.454 231.11 381.154 230.066 381.237 229.91C383.576 225.546 385.528 215.722 381.676 211.734C381.018 211.087 380.232 210.587 379.367 210.265C378.503 209.944 377.581 209.808 376.66 209.867C375.74 209.926 374.843 210.179 374.027 210.609C373.211 211.038 372.495 211.635 371.925 212.36C369.388 215.346 369.419 220.169 370.234 223.781C371.048 227.394 375.6 233.699 376.821 235.328L374.441 237.907C370.662 242.083 366.914 246.207 363.103 250.163C361.767 251.562 360.389 252.888 359.021 254.224C359.731 253.18 360.326 252.324 360.399 252.136C362.738 247.773 364.69 237.948 360.838 233.96C360.179 233.315 359.392 232.815 358.527 232.493C357.663 232.172 356.74 232.036 355.82 232.094C354.899 232.152 354.001 232.403 353.184 232.83C352.367 233.258 351.649 233.853 351.076 234.576C348.55 237.573 348.581 242.396 349.395 246.008C350.21 249.62 354.313 255.31 355.764 257.262C354.323 258.578 352.882 259.904 351.421 261.125C350.377 261.929 349.489 262.775 348.425 263.537L345.345 265.813C343.34 267.201 341.273 268.632 339.279 269.937C337.891 270.845 336.565 271.691 335.218 272.547C336.575 271.169 339.164 268.423 339.394 268.172C341.877 264.586 343.401 260.424 343.821 256.083C344.115 255.697 344.374 255.284 344.593 254.851C345.031 254.039 345.293 253.144 345.362 252.224C345.431 251.304 345.306 250.38 344.995 249.512C344.684 248.643 344.194 247.85 343.556 247.184C342.918 246.517 342.148 245.992 341.294 245.643C336.074 243.69 327.858 249.37 324.778 253.254C324.59 253.483 322.899 256.187 321.855 257.91C322.314 256.803 322.773 255.738 323.233 254.59C324.152 252.335 325.008 250.059 325.926 247.605C326.334 246.405 326.751 245.194 327.158 243.972C327.565 242.751 327.9 241.446 328.286 240.172C329.111 237.186 329.8 234.138 330.426 231.037C332.399 231.841 339.467 234.587 343.184 234.462C346.9 234.336 351.536 233.146 353.822 229.941C354.378 229.205 354.773 228.361 354.98 227.462C355.188 226.564 355.205 225.632 355.028 224.727C354.852 223.822 354.487 222.964 353.957 222.209C353.427 221.455 352.745 220.82 351.953 220.347C347.12 217.622 338.11 221.996 334.477 225.358C334.247 225.577 331.908 228.281 330.656 229.795C331.011 227.937 331.386 226.078 331.7 224.178C332.577 218.697 333.297 213.133 334.049 207.579C334.268 205.877 334.518 204.186 334.759 202.494C335.458 202.787 343.789 206.232 347.955 206.086C351.651 205.96 356.307 204.77 358.583 201.565C359.139 200.83 359.534 199.986 359.743 199.088C359.952 198.19 359.969 197.258 359.793 196.353C359.618 195.448 359.254 194.59 358.726 193.835C358.197 193.08 357.515 192.445 356.724 191.971C351.88 189.256 342.87 193.62 339.237 196.992C338.966 197.243 335.604 201.168 334.8 202.212C335.333 198.485 335.844 194.769 336.596 191.125C337.532 186.202 338.784 181.344 340.344 176.582C340.668 176.718 349.343 180.361 353.613 180.215C357.309 180.08 361.965 178.9 364.241 175.695C364.798 174.959 365.193 174.114 365.402 173.215C365.611 172.317 365.628 171.384 365.453 170.478C365.277 169.572 364.913 168.714 364.385 167.958C363.856 167.201 363.174 166.565 362.383 166.09C357.539 163.376 348.539 167.739 344.896 171.112C344.656 171.331 342.098 174.306 340.908 175.747L340.636 175.59C342.311 170.847 344.407 166.263 346.9 161.893C348.258 159.471 349.677 157.226 351.076 155.076C352.621 155.921 359.731 159.69 363.604 159.993C367.3 160.264 372.071 159.596 374.671 156.663C375.304 155.992 375.789 155.196 376.094 154.326C376.399 153.456 376.517 152.532 376.442 151.613C376.366 150.694 376.097 149.802 375.654 148.993C375.21 148.185 374.601 147.479 373.867 146.922C369.357 143.686 359.929 147.037 355.941 149.991C355.733 150.148 353.707 152.017 352.256 153.405C352.914 152.445 353.582 151.443 354.24 150.534C356.683 147.131 359.136 144.156 361.318 141.535C362.581 140.063 363.75 138.748 364.847 137.537C366.799 137.537 374.66 137.62 378.147 136.127C381.634 134.634 385.455 131.878 386.437 128.078C386.69 127.19 386.754 126.258 386.623 125.344C386.492 124.429 386.17 123.553 385.677 122.772C385.185 121.99 384.533 121.322 383.764 120.809C382.995 120.297 382.127 119.953 381.217 119.799C375.725 119.006 368.897 126.334 366.715 130.782C366.528 131.168 364.283 137.526 364.377 137.526H364.502C363.458 138.674 362.258 139.917 361.026 141.305C358.781 143.874 356.255 146.807 353.718 150.169C350.951 153.773 348.396 157.534 346.065 161.434C343.441 165.789 341.208 170.37 339.394 175.121L339.331 175.298C339.425 173.669 339.509 169.128 339.477 168.773C339.018 163.835 335.228 154.575 329.81 153.374C328.905 153.199 327.974 153.217 327.076 153.426C326.179 153.635 325.335 154.031 324.601 154.587C323.866 155.143 323.257 155.848 322.813 156.655C322.368 157.463 322.099 158.354 322.022 159.273C321.615 163.167 324.298 167.176 326.97 169.734Z" fill="#9C9C9C"/>
<path d="M390.111 353.509V350.012C390.111 332.003 412.912 331.22 412.912 318.399C412.912 312.835 408.381 309.202 401.637 309.202C394.256 309.202 389.589 313.221 389.589 318.921V320.351C389.589 321.771 388.817 322.439 387.387 322.439L373.533 321.917C372.238 321.917 371.33 321.27 371.33 320.372V318.942C371.33 303.282 383.764 292.518 402.034 292.518C419.907 292.518 431.433 302.624 431.433 317.773C431.433 339.279 408.246 339.415 408.246 351.181V353.509C408.281 353.807 408.248 354.109 408.15 354.392C408.052 354.675 407.891 354.933 407.678 355.145C407.466 355.357 407.209 355.518 406.926 355.616C406.643 355.714 406.341 355.747 406.043 355.712H392.314C392.017 355.747 391.715 355.714 391.431 355.616C391.148 355.518 390.891 355.357 390.679 355.145C390.467 354.933 390.306 354.675 390.207 354.392C390.109 354.109 390.076 353.807 390.111 353.509ZM388.942 374.389C388.942 368.689 393.995 364.022 400.082 364.022C405.918 364.022 411.096 368.689 411.096 374.389C411.096 380.089 405.876 384.756 399.956 384.756C394.037 384.756 388.942 380.068 388.942 374.368V374.389Z" fill="#263238"/>
<path d="M116.375 205.156V202.118C116.375 186.458 136.211 185.801 136.211 174.661C136.211 169.817 132.275 166.675 126.428 166.675C120.008 166.675 115.988 170.162 115.988 175.11V176.352C115.988 177.584 115.32 178.148 114.078 178.148L102.041 177.699C100.913 177.699 100.13 177.135 100.13 176.352V175.11C100.13 161.538 110.925 152.142 126.794 152.142C142.318 152.142 152.34 160.922 152.34 174.066C152.34 192.743 132.191 192.858 132.191 203.1V205.125C132.221 205.383 132.193 205.645 132.107 205.89C132.022 206.136 131.882 206.359 131.698 206.543C131.515 206.726 131.292 206.866 131.046 206.952C130.801 207.037 130.539 207.066 130.281 207.036H118.285C118.03 207.065 117.771 207.037 117.528 206.953C117.285 206.869 117.064 206.732 116.881 206.552C116.698 206.372 116.557 206.153 116.47 205.912C116.382 205.67 116.35 205.412 116.375 205.156ZM115.331 223.27C115.331 218.321 119.715 214.271 124.998 214.271C130.062 214.271 134.572 218.321 134.572 223.27C134.572 228.218 130.062 232.269 124.894 232.269C122.439 232.331 120.059 231.42 118.273 229.734C116.488 228.048 115.441 225.724 115.362 223.27H115.331Z" fill="#407BFF"/>
<path d="M368.354 85.3575V83.8228C368.354 75.9197 378.356 75.5752 378.356 69.948C378.356 67.5051 376.362 65.9077 373.407 65.9077C370.171 65.9077 368.125 67.6721 368.125 70.1777V70.8041C368.125 71.4305 367.78 71.7124 367.154 71.7124L361.078 71.4827C360.504 71.4827 360.107 71.2008 360.107 70.8041V70.1777C360.107 63.2977 365.567 58.5789 373.585 58.5789C381.425 58.5789 386.489 63.0159 386.489 69.6661C386.489 79.0621 376.31 79.1561 376.31 84.2821V85.3261C376.325 85.4569 376.31 85.5894 376.267 85.7137C376.223 85.8379 376.152 85.9506 376.059 86.0432C375.965 86.1358 375.852 86.2058 375.727 86.248C375.602 86.2902 375.469 86.3034 375.339 86.2866H369.315C369.188 86.3028 369.058 86.2902 368.937 86.2497C368.815 86.2092 368.704 86.1419 368.612 86.0527C368.519 85.9635 368.448 85.8547 368.404 85.7343C368.359 85.614 368.343 85.4852 368.354 85.3575ZM367.843 94.5133C367.776 93.5372 368.004 92.5634 368.498 91.7187C368.992 90.8739 369.728 90.1974 370.612 89.7769C371.495 89.3564 372.485 89.2115 373.452 89.361C374.419 89.5106 375.319 89.9476 376.034 90.6153C376.749 91.283 377.247 92.1504 377.463 93.1048C377.678 94.0593 377.602 95.0565 377.243 95.9668C376.884 96.8772 376.26 97.6585 375.451 98.2092C374.642 98.7599 373.686 99.0545 372.708 99.0547C372.09 99.077 371.474 98.9772 370.895 98.7608C370.315 98.5445 369.785 98.216 369.333 97.794C368.881 97.3721 368.516 96.8652 368.261 96.3022C368.005 95.7392 367.863 95.1313 367.843 94.5133Z" fill="#407BFF"/>
<path d="M75.168 296.496V294.565C75.168 284.605 87.7795 284.177 87.7795 277.078C87.7795 273.998 85.2739 271.993 81.5155 271.993C77.4335 271.993 74.8548 274.217 74.8548 277.37V278.153C74.8548 278.946 74.4268 279.301 73.6333 279.301L65.9704 279.019C65.25 279.019 64.7489 278.654 64.7489 278.153V277.37C64.7489 268.705 71.6288 262.754 81.7348 262.754C91.6214 262.754 97.9898 268.339 97.9898 276.723C97.9898 288.614 85.1695 288.687 85.1695 295.212V296.496C85.1898 296.661 85.1721 296.829 85.1179 296.986C85.0637 297.144 84.9743 297.287 84.8566 297.405C84.7389 297.522 84.5959 297.612 84.4384 297.666C84.281 297.72 84.1133 297.738 83.948 297.718H76.3686C76.205 297.734 76.0396 297.714 75.8849 297.658C75.7301 297.603 75.5899 297.513 75.4745 297.395C75.3592 297.278 75.2718 297.136 75.2187 296.981C75.1657 296.825 75.1483 296.659 75.168 296.496V296.496ZM74.5207 308.032C74.439 306.802 74.7294 305.576 75.3542 304.514C75.979 303.451 76.9093 302.601 78.0239 302.075C79.1384 301.548 80.3857 301.369 81.6033 301.562C82.8209 301.754 83.9524 302.308 84.8506 303.152C85.7487 303.997 86.3718 305.092 86.6389 306.295C86.9059 307.499 86.8045 308.755 86.3477 309.9C85.891 311.045 85.1002 312.025 84.0782 312.715C83.0562 313.404 81.8503 313.769 80.6177 313.764C79.0465 313.814 77.5195 313.239 76.3723 312.164C75.2251 311.09 74.5516 309.603 74.4998 308.032H74.5207Z" stroke="#263238" stroke-miterlimit="10"/>
<path d="M171.216 116.281V114.955C171.216 108.106 179.892 107.803 179.892 102.928C179.892 100.84 178.169 99.4306 175.601 99.4306C172.792 99.4306 171.018 100.955 171.018 103.126V103.669C171.018 104.212 170.725 104.452 170.182 104.452L164.962 104.254C164.472 104.254 164.127 104.014 164.127 103.669V103.126C164.127 97.1651 168.857 93.0726 175.799 93.0726C182.742 93.0726 186.876 96.9146 186.876 102.677C186.876 110.862 178.054 110.915 178.054 115.393V116.281C178.068 116.394 178.055 116.508 178.018 116.616C177.981 116.723 177.92 116.821 177.839 116.901C177.759 116.981 177.661 117.043 177.554 117.08C177.446 117.117 177.332 117.129 177.219 117.116H171.999C171.89 117.121 171.782 117.103 171.681 117.062C171.58 117.021 171.489 116.959 171.415 116.879C171.34 116.8 171.284 116.705 171.249 116.602C171.215 116.498 171.204 116.389 171.216 116.281ZM170.778 124.215C170.732 123.381 170.937 122.552 171.367 121.836C171.797 121.12 172.432 120.549 173.19 120.197C173.948 119.846 174.794 119.73 175.618 119.864C176.443 119.998 177.208 120.377 177.815 120.95C178.423 121.524 178.844 122.267 179.024 123.083C179.205 123.898 179.137 124.749 178.829 125.526C178.521 126.302 177.986 126.969 177.296 127.439C176.605 127.908 175.789 128.16 174.954 128.161C173.875 128.198 172.827 127.805 172.038 127.069C171.249 126.333 170.784 125.314 170.746 124.236L170.778 124.215Z" fill="#263238"/>
<path d="M325.728 402.493V401.167C325.728 394.319 334.404 394.026 334.404 389.141C334.404 387.053 332.681 385.643 330.113 385.643C327.304 385.643 325.53 387.167 325.53 389.339V389.882C325.53 390.425 325.237 390.675 324.694 390.675L319.474 390.477C318.984 390.477 318.639 390.226 318.639 389.882V389.339C318.639 383.378 323.369 379.285 330.311 379.285C337.254 379.285 341.503 383.127 341.503 388.9C341.503 397.075 332.681 397.127 332.681 401.606V402.493C332.694 402.607 332.682 402.721 332.644 402.829C332.607 402.937 332.546 403.035 332.466 403.116C332.386 403.198 332.289 403.26 332.181 403.298C332.074 403.337 331.959 403.351 331.846 403.339H326.626C326.508 403.361 326.386 403.355 326.27 403.322C326.155 403.288 326.049 403.227 325.961 403.145C325.874 403.062 325.807 402.96 325.766 402.847C325.726 402.734 325.713 402.613 325.728 402.493V402.493ZM325.29 410.428C325.244 409.594 325.449 408.765 325.879 408.048C326.309 407.332 326.944 406.761 327.702 406.41C328.46 406.058 329.306 405.942 330.13 406.076C330.955 406.211 331.72 406.589 332.327 407.163C332.935 407.737 333.356 408.479 333.536 409.295C333.717 410.111 333.649 410.962 333.341 411.738C333.033 412.515 332.498 413.181 331.808 413.651C331.117 414.121 330.301 414.373 329.466 414.374C328.391 414.399 327.35 413.999 326.569 413.259C325.789 412.52 325.333 411.502 325.3 410.428H325.29Z" stroke="#263238" stroke-miterlimit="10"/>
<path d="M284.855 426.255C284.782 426.035 284.709 425.816 284.626 425.597C284.542 425.378 284.48 425.148 284.396 424.929C284.313 424.71 284.25 424.49 284.166 424.271C284.083 424.052 284.02 423.822 283.937 423.603C283.853 423.384 283.791 423.164 283.707 422.945C283.623 422.726 283.561 422.496 283.477 422.277L283.248 421.619C283.175 421.39 283.091 421.17 283.018 420.951L282.788 420.293C282.715 420.064 282.632 419.845 282.559 419.625L282.329 418.968C282.256 418.738 282.172 418.519 282.099 418.299L281.88 417.6C281.807 417.37 281.723 417.151 281.65 416.932L281.41 416.274C281.337 416.044 281.264 415.825 281.18 415.606C281.097 415.387 281.034 415.167 280.951 414.948C280.867 414.729 280.805 414.499 280.721 414.28C280.638 414.061 280.575 413.842 280.491 413.622C277.088 403.266 266.565 395.666 254.987 395.666C243.764 395.666 234.002 402.201 229.931 411.409C229.826 411.618 229.732 411.837 229.638 412.046L229.356 412.693C229.252 412.902 229.158 413.111 229.064 413.33C228.97 413.549 228.866 413.758 228.772 413.967L228.49 414.604C228.385 414.823 228.291 415.032 228.198 415.251C228.104 415.47 227.999 415.669 227.905 415.888C227.811 416.107 227.707 416.305 227.613 416.525L227.331 417.161C227.227 417.37 227.133 417.59 227.039 417.798C226.945 418.007 226.84 418.226 226.746 418.435L226.464 419.082C226.36 419.291 226.266 419.5 226.172 419.719C226.078 419.939 225.974 420.147 225.88 420.356L225.598 420.993C225.494 421.212 225.4 421.421 225.306 421.64C225.212 421.859 225.107 422.058 225.013 422.277L224.731 422.914C224.627 423.123 224.533 423.342 224.439 423.551C224.345 423.76 224.241 423.979 224.147 424.198C222.356 428.013 221.436 432.178 221.453 436.392C221.453 453.2 235.965 466.939 253.911 466.939C271.471 466.939 286.745 453.2 286.745 436.392C286.742 433.187 286.18 430.008 285.085 426.996C285.012 426.693 284.939 426.474 284.855 426.255Z" fill="#263238"/>
<path d="M260.019 195.019C206.18 195.019 169.525 226.704 169.525 272.912V277.088C169.534 277.778 169.722 278.453 170.07 279.05C170.417 279.646 170.913 280.142 171.508 280.491C171.734 280.708 171.978 280.903 172.239 281.076C172.465 281.296 172.714 281.491 172.98 281.66C173.207 281.88 173.455 282.076 173.722 282.245C173.946 282.467 174.194 282.663 174.463 282.83C174.685 283.049 174.93 283.245 175.194 283.414C175.42 283.637 175.668 283.837 175.935 284.009C176.164 284.226 176.412 284.422 176.676 284.594C176.903 284.813 177.151 285.009 177.417 285.179C177.64 285.398 177.885 285.594 178.148 285.763C178.393 286 178.663 286.21 178.952 286.39C179.165 286.583 179.392 286.761 179.631 286.922C179.86 287.139 180.108 287.335 180.372 287.507C180.597 287.723 180.842 287.919 181.103 288.091C181.332 288.308 181.58 288.504 181.844 288.676C182.071 288.895 182.319 289.091 182.585 289.261C182.808 289.48 183.053 289.676 183.316 289.845C183.543 290.065 183.791 290.26 184.057 290.43C184.28 290.649 184.525 290.845 184.788 291.015C185.017 291.231 185.265 291.427 185.529 291.599C185.752 291.818 185.997 292.014 186.26 292.184C187.466 293.245 189.04 293.792 190.645 293.708L224.22 294.961C227.676 294.961 229.555 293.395 229.555 289.939V286.494C229.555 272.682 240.851 262.962 258.787 262.962C275.104 262.962 286.087 271.742 286.087 285.241C286.088 286.779 285.941 288.314 285.649 289.824C268.799 311.915 224.94 321.656 224.94 364.533V374.848C224.94 379.024 227.227 381.331 231.434 381.331H271.858C276.034 381.331 278.351 379.045 278.351 374.848V367.968C278.351 333.223 346.702 332.837 346.702 269.456C346.702 224.794 312.709 195.019 260.019 195.019Z" fill="#263238"/>
<path d="M224.888 374.869V364.554C224.888 311.477 292.09 309.222 292.09 271.388C292.09 254.966 278.727 244.244 258.87 244.244C237.102 244.244 223.374 256.083 223.374 272.881V277.057C223.374 281.233 221.077 283.175 216.88 283.175L176.018 281.64C172.207 281.64 169.535 279.729 169.535 277.057V272.881C169.535 226.673 206.19 194.988 260.029 194.988C312.719 194.988 346.681 224.763 346.681 269.446C346.681 332.827 278.33 333.214 278.33 367.958V374.838C278.33 379.014 276.033 381.321 271.836 381.321H231.381C227.174 381.352 224.888 379.066 224.888 374.869ZM221.453 436.392C221.453 419.594 236.34 405.845 254.287 405.845C271.471 405.845 286.745 419.594 286.745 436.392C286.745 453.19 271.44 466.887 253.911 466.887C235.944 466.887 221.453 453.148 221.453 436.392Z" fill="#407BFF" stroke="#407BFF" stroke-miterlimit="10"/>
<path d="M252.241 501.12C283.728 501.12 309.254 495.413 309.254 488.373C309.254 481.333 283.728 475.626 252.241 475.626C220.754 475.626 195.228 481.333 195.228 488.373C195.228 495.413 220.754 501.12 252.241 501.12Z" fill="#263238"/>
<path d="M208.664 199.247L206.482 204.008C206.482 204.008 193.808 205.376 193.808 206.326C193.808 207.276 193.944 213.822 194.633 214.093C195.157 214.297 195.738 214.297 196.262 214.093L214.928 209.322L216.703 200.876L208.664 199.247Z" fill="white" stroke="#263238" stroke-linecap="round" stroke-linejoin="round"/>
<path d="M205.115 207.756C202.797 209.655 200.296 211.32 197.65 212.725C194.633 214.083 194.518 216.139 195.479 216.139C196.439 216.139 204.958 212.569 204.958 212.569C204.958 212.569 212.694 210.543 213.811 209.927C214.928 209.312 215.054 205.887 215.054 205.887" fill="white"/>
<path d="M205.115 207.756C202.797 209.655 200.296 211.32 197.65 212.725C194.633 214.083 194.518 216.139 195.479 216.139C196.439 216.139 204.958 212.569 204.958 212.569C204.958 212.569 212.694 210.543 213.811 209.927C214.928 209.312 215.054 205.887 215.054 205.887" stroke="#263238" stroke-linecap="round" stroke-linejoin="round"/>
<path d="M219.814 107.772L212.026 167.468L206.608 199.79L218.634 202.63L227.602 164.399L231.852 140.334L219.814 107.772Z" fill="#7D7D7D" stroke="#263238" stroke-linecap="round" stroke-linejoin="round"/>
<path d="M282.663 64.5505L277.913 63.7988L268.183 60.1135L267.828 71.6706L282.914 73.0591L282.663 64.5505Z" fill="white" stroke="#263238" stroke-linecap="round" stroke-linejoin="round"/>
<path d="M227.133 276.242C223.592 280.37 220.285 284.692 217.225 289.188C213.206 295.327 214.626 301.925 219.585 303.585C224.544 305.245 230.901 300.745 232.561 297.206C234.221 293.667 233.741 291.788 236.33 288.248C238.919 284.709 241.049 281.17 240.11 276.451C239.17 271.732 229.68 272.943 227.133 276.242Z" fill="#7D7D7D" stroke="#263238" stroke-linecap="round" stroke-linejoin="round"/>
<path d="M232.081 298.093C231.747 297.383 231.361 296.632 230.901 295.828C227.112 289.157 220.461 289.689 216.285 290.931C213.54 296.538 215.106 302.113 219.605 303.616C224.105 305.119 229.91 301.445 232.081 298.093Z" fill="white" stroke="#263238" stroke-linecap="round" stroke-linejoin="round"/>
<path d="M230.901 295.828C229.492 297.916 227.602 303.616 220.284 301.257C218.243 300.733 216.418 299.583 215.064 297.968C215.222 299.241 215.733 300.445 216.539 301.443C217.346 302.441 218.415 303.194 219.626 303.616C224.575 305.266 230.943 300.776 232.603 297.237C234.263 293.698 233.783 291.819 236.372 288.28C238.961 284.741 241.091 281.201 240.151 276.483C240.151 282.141 238.063 283.081 235.432 286.15C232.802 289.219 232.321 293.698 230.901 295.828Z" fill="white" stroke="#263238" stroke-linecap="round" stroke-linejoin="round"/>
<path d="M296.757 276.242C300.297 280.37 303.605 284.692 306.665 289.188C310.684 295.327 309.264 301.925 304.305 303.585C299.346 305.245 292.988 300.745 291.328 297.206C289.668 293.667 290.148 291.788 287.559 288.248C284.97 284.709 282.84 281.17 283.78 276.451C284.72 271.732 294.168 272.943 296.757 276.242Z" fill="#7D7D7D" stroke="#263238" stroke-linecap="round" stroke-linejoin="round"/>
<path d="M291.819 298.093C292.142 297.383 292.529 296.632 292.988 295.828C296.778 289.157 303.428 289.689 307.604 290.931C310.35 296.538 308.784 302.113 304.284 303.616C299.785 305.119 293.98 301.445 291.819 298.093Z" fill="white" stroke="#263238" stroke-linecap="round" stroke-linejoin="round"/>
<path d="M292.988 295.828C294.398 297.916 296.287 303.616 303.606 301.257C305.646 300.733 307.472 299.583 308.826 297.968C308.667 299.241 308.156 300.445 307.35 301.443C306.544 302.441 305.475 303.194 304.263 303.616C299.315 305.266 292.946 300.776 291.286 297.237C289.626 293.698 290.107 291.819 287.518 288.28C284.928 284.741 282.799 281.201 283.738 276.483C283.738 282.141 285.826 283.081 288.457 286.15C291.088 289.219 291.568 293.698 292.988 295.828Z" fill="white" stroke="#263238" stroke-linecap="round" stroke-linejoin="round"/>
<path d="M307.823 194.842C307.823 190.593 300.515 185.874 300.515 185.874C289.501 174.672 269.623 176.154 262.284 177.156C254.976 176.112 235.077 174.672 224.063 185.874C224.063 185.874 216.755 190.593 216.755 194.842C216.755 199.091 225.963 275.773 225.963 275.773C225.963 275.773 225.723 279.782 232.332 280.251C238.94 280.721 241.728 276.952 241.728 276.952L244.327 212.068C244.327 212.068 254.945 204.509 256.855 204.279C257.544 204.185 258.442 204.039 259.444 203.914V204.039C261.314 203.649 263.244 203.649 265.113 204.039V203.914C266.157 204.039 267.003 204.185 267.702 204.279C269.592 204.509 280.23 212.068 280.23 212.068L282.83 276.952C282.83 276.952 285.659 280.721 292.226 280.251C298.793 279.782 298.594 275.773 298.594 275.773C298.594 275.773 307.823 199.091 307.823 194.842Z" fill="#263238" stroke="#263238" stroke-linecap="round" stroke-linejoin="round"/>
<path d="M280.22 212.068C280.22 212.068 278.8 196.491 285.649 190.593" stroke="#707070" stroke-linecap="round" stroke-linejoin="round"/>
<path d="M244.359 212.068C244.359 212.068 245.069 199.091 243.649 194.372C242.229 189.653 239.869 187.763 239.869 187.763" stroke="#707070" stroke-linecap="round" stroke-linejoin="round"/>
<path d="M253.086 181.155C253.086 181.155 260.635 189.883 262.054 197.201" stroke="#707070" stroke-linecap="round" stroke-linejoin="round"/>
<path d="M269.603 181.656C269.603 181.656 265.353 186.375 264.884 189.914" stroke="#707070" stroke-linecap="round" stroke-linejoin="round"/>
<path d="M258.985 89.8466C258.985 89.8466 252.147 88.8966 249.787 91.256C247.428 93.6155 239.4 102.312 239.4 102.312L243.649 177.344C243.649 177.344 253.327 181.124 261.585 181.124C269.843 181.124 279.28 178.054 281.421 176.405C283.561 174.755 281.661 94.2941 281.661 94.2941C281.661 94.2941 264.132 89.1367 258.985 89.8466Z" fill="#407BFF" stroke="#263238" stroke-linecap="round" stroke-linejoin="round"/>
<path d="M271.492 91.4961C275.084 90.9507 278.707 90.6334 282.339 90.5461C287.058 90.5461 291.735 90.7862 291.735 90.7862L303.533 79.4588L279.792 74.03L281.682 63.1829C281.682 63.1829 299.137 62.0031 307.865 63.6527C316.593 65.3022 330.28 69.5513 330.99 69.5513C331.7 69.5513 332.639 72.1508 331.929 74.03C331.219 75.9092 309.024 100.464 302.395 106.833C298.058 111.082 293.963 115.572 290.128 120.279L287.1 172.897C287.1 172.897 294.888 177.146 296.308 178.555C297.728 179.965 299.377 185.634 299.377 185.634C299.377 185.634 284.981 179.735 281.201 179.265C277.422 178.795 275.073 178.555 274.363 177.177C273.653 175.799 267.755 112.762 267.755 112.762L267.995 92.7072C267.995 92.7072 267.953 91.4961 271.492 91.4961Z" fill="#7D7D7D" stroke="#263238" stroke-linecap="round" stroke-linejoin="round"/>
<path d="M285.649 123.818L272.902 125.468L274.081 130.187L280.46 131.836L286.588 129.007L285.649 123.818Z" stroke="#263238" stroke-linecap="round" stroke-linejoin="round"/>
<path d="M292.957 95.5051L290.128 120.279L297.446 99.2843" stroke="#263238" stroke-linecap="round" stroke-linejoin="round"/>
<path d="M303.574 79.4588C303.574 79.4588 309.473 80.6385 318.441 77.0994" stroke="#263238" stroke-linecap="round" stroke-linejoin="round"/>
<path d="M309.713 81.1083C313.588 81.2162 317.463 80.9011 321.27 80.1687" stroke="#263238" stroke-linecap="round" stroke-linejoin="round"/>
<path d="M250.967 89.6065L252.147 106.832C253.222 108.247 254.615 109.389 256.212 110.167C257.81 110.945 259.568 111.337 261.345 111.311C267.243 111.082 267.953 106.832 267.953 106.832V92.6759L250.967 89.6065Z" fill="white" stroke="#263238" stroke-linecap="round" stroke-linejoin="round"/>
<path d="M268.183 98.5745L267.713 112.752L272.672 104.964C272.672 104.964 278.101 111.802 279.51 111.572C280.92 111.343 278.571 108.503 278.101 105.914C277.631 103.325 273.612 94.1062 273.142 91.517C272.672 88.9279 268.183 88.4477 267.922 89.6274C267.791 90.6463 267.791 91.6778 267.922 92.6968L268.183 98.5745Z" fill="#7D7D7D" stroke="#263238" stroke-linecap="round" stroke-linejoin="round"/>
<path d="M251.907 111.311C251.907 111.311 252.846 177.376 250.487 178.127C248.128 178.879 238.69 179.077 232.739 181.907C226.788 184.736 224.011 185.915 224.011 185.915C224.011 185.915 226.84 179.077 230.15 176.008C232.349 174.031 234.808 172.363 237.458 171.049L231.33 139.437C231.33 139.437 220.002 109.463 219.762 107.814C219.522 106.164 241.237 93.8973 245.716 91.7676C250.195 89.6378 251.385 91.5379 251.385 91.5379L251.907 111.311Z" fill="#7D7D7D" stroke="#263238" stroke-linecap="round" stroke-linejoin="round"/>
<path d="M246.008 88.4268C246.008 88.4268 240.35 106.363 239.869 108.722C239.389 111.082 239.869 111.082 241.529 109.422C243.189 107.762 247.428 103.763 247.428 103.763L251.907 111.311L251.667 97.3948V89.3664C251.667 89.3664 251.437 86.0674 246.008 88.4268Z" fill="#7D7D7D" stroke="#263238" stroke-linecap="round" stroke-linejoin="round"/>
<path d="M234.921 127.128H248.837L248.608 132.786L242.469 134.906L234.681 132.786L234.921 127.128Z" stroke="#263238" stroke-linecap="round" stroke-linejoin="round"/>
<path d="M273.142 65.0725C273.142 65.0725 276.441 79.4588 277.151 81.7765C277.861 84.0942 273.382 93.344 271.931 95.4633C271.378 96.3825 270.619 97.1596 269.712 97.7325C268.806 98.3053 267.778 98.658 266.711 98.7624C265.061 98.7624 256.093 95.7034 253.963 94.2836C251.834 92.8638 249.725 91.2143 249.725 91.2143C248.721 91.6719 247.606 91.8267 246.515 91.6598C245.425 91.4929 244.407 91.0115 243.586 90.2747C240.757 87.6751 236.978 84.6057 237.917 82.4864C238.375 81.4464 239.141 80.5722 240.112 79.9822C241.083 79.3921 242.212 79.1146 243.346 79.1874C245.946 79.1874 245.006 78.9473 245.006 78.9473C245.006 78.9473 240.287 72.109 240.287 66.6802C240.287 61.2514 250.424 57.2842 256.323 57.2842C260.401 57.4542 264.408 58.4151 268.12 60.1135L273.142 65.0725Z" fill="white" stroke="#263238" stroke-linecap="round" stroke-linejoin="round"/>
<path d="M264.884 70.4908L269.133 78.5192L264.884 81.3484L262.994 78.989" stroke="#263238" stroke-linecap="round" stroke-linejoin="round"/>
<path d="M272.672 77.8093C272.672 77.8093 272.902 79.699 270.072 82.7683" stroke="#263238" stroke-linecap="round" stroke-linejoin="round"/>
<path d="M260.405 73.4454C260.405 74.552 259.925 75.4499 259.361 75.4499C258.797 75.4499 258.317 74.552 258.317 73.4454C258.317 72.3388 258.797 71.4409 259.361 71.4409C259.925 71.4409 260.405 72.3388 260.405 73.4454Z" fill="#263238"/>
<path d="M267.828 71.6706C268.416 71.6706 268.893 70.7732 268.893 69.6661C268.893 68.5591 268.416 67.6616 267.828 67.6616C267.24 67.6616 266.763 68.5591 266.763 69.6661C266.763 70.7732 267.24 71.6706 267.828 71.6706Z" fill="#263238"/>
<path d="M247.658 52.7951C247.658 52.7951 232.812 58.2239 232.321 65.0725C231.831 71.9211 245.538 81.3485 246.248 82.5282C246.958 83.7079 249.078 81.1083 249.078 81.1083C248.606 80.4744 248.276 79.746 248.112 78.9729C247.948 78.1999 247.954 77.4005 248.127 76.6296C248.837 74.2701 251.907 71.4096 251.907 70.2612C251.907 69.1128 248.368 71.2008 248.368 67.6616C248.368 64.1225 257.095 62.0031 262.284 62.2328C267.473 62.4625 271.962 71.2008 275.741 66.9517C279.521 62.7026 274.081 61.5333 274.081 61.5333C274.081 61.5333 281.389 60.5833 281.389 56.8145C281.389 53.0456 277.61 50.4356 275.961 50.4356C274.311 50.4356 269.832 53.2753 269.832 50.2059C269.832 47.1366 274.311 45.7167 270.062 40.8099C265.813 35.9031 260.394 40.8099 260.394 42.6996C260.394 44.5892 258.975 48.1179 258.035 48.1179C257.095 48.1179 254.256 43.8793 250.957 46.2387C249.965 47.0274 249.156 48.0222 248.586 49.1542C248.017 50.2862 247.7 51.5285 247.658 52.7951Z" fill="#263238" stroke="#263238" stroke-linecap="round" stroke-linejoin="round"/>
<path d="M253.796 70.9711L261.345 68.1314" stroke="#263238" stroke-linecap="round" stroke-linejoin="round"/>
<path d="M262.524 64.8324C262.38 64.0917 262.498 63.3239 262.858 62.6609" stroke="#263238" stroke-linecap="round" stroke-linejoin="round"/>
<path d="M262.858 62.64C263.391 61.596 264.591 60.2492 267.243 59.153" stroke="white" stroke-linecap="round" stroke-linejoin="round"/>
</svg>
